<svg xmlns="http://www.w3.org/2000/svg" version="1.1" xmlns:xlink="http://www.w3.org/1999/xlink" xmlns:svgjs="http://svgjs.com/svgjs" width="25" height="25" x="0" y="0" viewBox="0 0 512 512" style="enable-background:new 0 0 512 512" xml:space="preserve" class=""><g><g xmlns="http://www.w3.org/2000/svg"><path d="m275.319 17.275h-38.639c-30.82 0-55.894 25.074-55.894 55.894v146.87c0 30.82 25.074 55.894 55.894 55.894h38.639c30.82 0 55.894-25.074 55.894-55.894v-146.871c0-30.819-25.074-55.893-55.894-55.893z" fill="#efeaee" data-original="#efeaee"></path><path d="m275.319 17.275h-19.319v258.658h19.319c30.82 0 55.894-25.074 55.894-55.894v-146.871c0-30.819-25.074-55.893-55.894-55.893z" fill="#d3d2d8" data-original="#d3d2d8"></path><path d="m419.502 111.881h-327.004c-11.258 0-20.384 9.126-20.384 20.384v195.15c0 35.515 28.791 64.306 64.306 64.306h239.162c35.515 0 64.306-28.791 64.306-64.306v-195.15c-.001-11.257-9.128-20.384-20.386-20.384z" fill="#0080d9" data-original="#0098d3" class=""></path><path d="m499.669 285.381c-5.085-9.864-14.16-17.13-24.896-19.935l-214.981-56.172c-2.486-.649-5.098-.649-7.584 0l-214.98 56.172c-10.737 2.805-19.812 10.071-24.896 19.935s-5.74 21.47-1.796 31.844l55.34 145.583c2.944 7.743 11.607 11.635 19.351 8.691 5.988-2.276 335.56-2.276 341.549 0 1.754.667 3.555.983 5.327.983 6.048 0 11.748-3.685 14.024-9.674l55.34-145.583c3.942-10.373 3.287-21.98-1.798-31.844z" fill="#efeaee" data-original="#efeaee"></path><path d="m426.774 471.499c1.754.667 3.555.983 5.327.983 6.048 0 11.748-3.685 14.024-9.674l55.34-145.583c3.943-10.374 3.289-21.98-1.796-31.844s-14.16-17.13-24.896-19.935l-214.981-56.172c-1.243-.325-2.518-.487-3.792-.487v261.005c83.89 0 167.78.569 170.774 1.707z" fill="#d3d2d8" data-original="#d3d2d8"></path><path d="m497 494.725c-23.611 0-35.958-6.148-46.852-11.572-9.456-4.708-16.925-8.428-33.479-8.428-16.555 0-24.024 3.719-33.48 8.428-10.894 5.424-23.241 11.572-46.852 11.572s-35.958-6.148-46.852-11.572c-9.456-4.708-16.925-8.428-33.479-8.428-16.555 0-24.024 3.719-33.48 8.428-10.894 5.424-23.241 11.572-46.853 11.572s-35.959-6.148-46.854-11.572c-9.457-4.708-16.926-8.428-33.483-8.428s-24.026 3.719-33.483 8.428c-10.893 5.424-23.241 11.572-46.853 11.572-8.284 0-15-6.716-15-15s6.716-15 15-15c16.557 0 24.026-3.719 33.483-8.428 10.894-5.424 23.242-11.572 46.854-11.572s35.96 6.148 46.854 11.572c9.457 4.708 16.926 8.428 33.482 8.428 16.555 0 24.024-3.719 33.48-8.428 10.894-5.424 23.241-11.572 46.853-11.572 23.611 0 35.958 6.148 46.852 11.572 9.456 4.708 16.925 8.428 33.479 8.428s24.023-3.719 33.479-8.427c10.894-5.424 23.241-11.573 46.852-11.573s35.958 6.148 46.852 11.572c9.456 4.708 16.925 8.428 33.479 8.428 8.284 0 15 6.716 15 15s-6.715 15-14.999 15z" fill="#0080d9" data-original="#0098d3" class=""></path><path d="m390.896 345.572c-1.255 0-2.531-.159-3.802-.491l-131.094-34.253-131.093 34.253c-8.015 2.094-16.211-2.706-18.305-10.721s2.706-16.21 10.721-18.305l134.885-35.244c2.486-.649 5.098-.649 7.584 0l134.885 35.244c8.015 2.094 12.815 10.29 10.721 18.305-1.762 6.744-7.844 11.212-14.502 11.212z" fill="#0080d9" data-original="#0098d3" class=""></path><g fill="#0082ca"><path d="m497 464.725c-16.555 0-24.023-3.719-33.479-8.428-10.894-5.424-23.241-11.572-46.852-11.572s-35.958 6.148-46.852 11.573c-9.456 4.708-16.925 8.427-33.479 8.427s-24.023-3.719-33.479-8.428c-10.894-5.424-23.241-11.572-46.852-11.572-.002 0-.004 0-.006 0v30h.006c16.555 0 24.023 3.719 33.479 8.428 10.894 5.424 23.241 11.572 46.852 11.572s35.958-6.148 46.852-11.572c9.456-4.708 16.925-8.428 33.48-8.428s24.023 3.719 33.479 8.428c10.894 5.424 23.241 11.572 46.852 11.572 8.284 0 15-6.716 15-15s-6.717-15-15.001-15z" fill="#0082ca" data-original="#0082ca" class=""></path><path d="m387.093 345.081c1.271.333 2.547.491 3.802.491 6.659 0 12.741-4.468 14.502-11.212 2.094-8.015-2.706-16.21-10.721-18.305l-134.885-35.244c-1.243-.325-2.518-.487-3.792-.487v30.503z" fill="#0082ca" data-original="#0082ca" class=""></path></g></g></g></svg>