<svg xmlns="http://www.w3.org/2000/svg" version="1.1" xmlns:xlink="http://www.w3.org/1999/xlink" xmlns:svgjs="http://svgjs.com/svgjs" width="512" height="512" x="0" y="0" viewBox="0 0 60.123 60.123" style="enable-background:new 0 0 512 512" xml:space="preserve" class=""><g transform="matrix(0.74,0,0,0.74,7.815990142822269,7.816119699478154)">
<g xmlns="http://www.w3.org/2000/svg">
	<path d="M57.124,51.893H16.92c-1.657,0-3-1.343-3-3s1.343-3,3-3h40.203c1.657,0,3,1.343,3,3S58.781,51.893,57.124,51.893z" fill="#000000" data-original="#000000" class=""></path>
	<path d="M57.124,33.062H16.92c-1.657,0-3-1.343-3-3s1.343-3,3-3h40.203c1.657,0,3,1.343,3,3   C60.124,31.719,58.781,33.062,57.124,33.062z" fill="#000000" data-original="#000000" class=""></path>
	<path d="M57.124,14.231H16.92c-1.657,0-3-1.343-3-3s1.343-3,3-3h40.203c1.657,0,3,1.343,3,3S58.781,14.231,57.124,14.231z" fill="#000000" data-original="#000000" class=""></path>
	<circle cx="4.029" cy="11.463" r="4.029" fill="#000000" data-original="#000000" class=""></circle>
	<circle cx="4.029" cy="30.062" r="4.029" fill="#000000" data-original="#000000" class=""></circle>
	<circle cx="4.029" cy="48.661" r="4.029" fill="#000000" data-original="#000000" class=""></circle>
</g>
<g xmlns="http://www.w3.org/2000/svg">
</g>
<g xmlns="http://www.w3.org/2000/svg">
</g>
<g xmlns="http://www.w3.org/2000/svg">
</g>
<g xmlns="http://www.w3.org/2000/svg">
</g>
<g xmlns="http://www.w3.org/2000/svg">
</g>
<g xmlns="http://www.w3.org/2000/svg">
</g>
<g xmlns="http://www.w3.org/2000/svg">
</g>
<g xmlns="http://www.w3.org/2000/svg">
</g>
<g xmlns="http://www.w3.org/2000/svg">
</g>
<g xmlns="http://www.w3.org/2000/svg">
</g>
<g xmlns="http://www.w3.org/2000/svg">
</g>
<g xmlns="http://www.w3.org/2000/svg">
</g>
<g xmlns="http://www.w3.org/2000/svg">
</g>
<g xmlns="http://www.w3.org/2000/svg">
</g>
<g xmlns="http://www.w3.org/2000/svg">
</g>
</g></svg>