<svg xmlns="http://www.w3.org/2000/svg" width="11" height="15" viewBox="0 0 11 15">
  <g id="location" transform="translate(-76)">
    <path id="Path_47759" data-name="Path 47759" d="M197.833,123.516A1.759,1.759,0,1,0,196,121.758,1.8,1.8,0,0,0,197.833,123.516Zm0-2.344a.586.586,0,1,1-.611.586A.6.6,0,0,1,197.833,121.172Z" transform="translate(-116.333 -116.484)" fill="gray"/>
    <path id="Path_47760" data-name="Path 47760" d="M87,5.273a5.5,5.5,0,0,0-11,0,5.089,5.089,0,0,0,1.1,3.162l2.935,3.752a1.881,1.881,0,0,0,2.934,0L85.9,8.435A5.089,5.089,0,0,0,87,5.273ZM84.925,7.732,81.99,11.484a.627.627,0,0,1-.979,0L78.075,7.732a3.957,3.957,0,0,1-.853-2.458,4.282,4.282,0,0,1,8.556,0A3.957,3.957,0,0,1,84.925,7.732Z" fill="gray"/>
    <path id="Path_47761" data-name="Path 47761" d="M162.111,472.586A.6.6,0,0,0,161.5,472h-4.889a.586.586,0,1,0,0,1.172H161.5A.6.6,0,0,0,162.111,472.586Z" transform="translate(-77.556 -458.172)" fill="gray"/>
  </g>
</svg>
