<svg version="1.2" xmlns="http://www.w3.org/2000/svg" viewBox="0 0 65 65" width="25" height="25">
	<title>Untitled (1)-svg</title>
	<style>
		.s0 { fill: #000000 } 
	</style>
	<g id="Layer">
		<path id="Layer" fill-rule="evenodd" class="s0" d="m54.4 1.6c2 0.8 3.7 2 5.2 3.5 1.5 1.5 2.7 3.3 3.5 5.2 0.8 1.9 1.2 4 1.2 6.1v32c0 2.1-0.4 4.2-1.2 6.1-0.8 2-2 3.7-3.5 5.2-1.5 1.5-3.2 2.7-5.2 3.5-1.9 0.8-4 1.2-6.1 1.2h-32c-2.1 0-4.2-0.4-6.1-1.2-2-0.8-3.7-2-5.2-3.5-1.5-1.5-2.7-3.2-3.5-5.2-0.8-1.9-1.2-4-1.2-6.1v-32c0-2.1 0.4-4.2 1.2-6.1 0.8-1.9 2-3.7 3.5-5.2 1.5-1.5 3.2-2.7 5.2-3.5 1.9-0.8 4-1.2 6.1-1.2h32c2.1 0 4.2 0.4 6.1 1.2zm6.9 14.8c0-1.7-0.3-3.4-1-5-0.6-1.5-1.6-3-2.8-4.2-1.2-1.2-2.6-2.1-4.2-2.8-1.6-0.6-3.3-1-5-1h-32c-1.7 0-3.4 0.4-5 1-1.5 0.7-3 1.6-4.2 2.8-1.2 1.2-2.1 2.7-2.8 4.2-0.7 1.6-1 3.3-1 5v32c0 1.7 0.3 3.4 1 5 0.7 1.6 1.6 3 2.8 4.2 1.2 1.2 2.7 2.2 4.2 2.8 1.6 0.7 3.3 1 5 1h32c1.7 0 3.4-0.3 5-1 1.6-0.6 3-1.6 4.2-2.8 1.2-1.2 2.2-2.6 2.8-4.2 0.7-1.6 1-3.3 1-5z"/>
		<path id="Layer" class="s0" d="m42.4 24l2.1-2.2 10.6 10.6-10.6 10.6-2.1-2.1 6.9-7-35.5 0.4 7.3 6.6-2.1 2.1-10.6-10.6 10.6-10.6 2.1 2.2-6.9 6.9h35.1z"/>
	</g>
</svg>