<?xml version="1.0" standalone="no"?>
<!DOCTYPE svg PUBLIC "-//W3C//DTD SVG 20010904//EN"
 "http://www.w3.org/TR/2001/REC-SVG-20010904/DTD/svg10.dtd">
<svg version="1.0" xmlns="http://www.w3.org/2000/svg"
 width="578.000000pt" height="578.000000pt" viewBox="0 0 578.000000 578.000000"
 preserveAspectRatio="xMidYMid meet">
<metadata>
Created by potrace 1.14, written by Peter Selinger 2001-2017
</metadata>
<g transform="translate(0.000000,578.000000) scale(0.100000,-0.100000)"
fill="#000000" stroke="none">
<path d="M3232 5743 c-6 -15 -43 -122 -83 -238 -240 -704 -529 -1441 -733
-1868 -31 -65 -56 -121 -56 -123 0 -3 -71 -150 -157 -326 -139 -282 -159 -319
-178 -315 -360 84 -463 82 -660 -13 -44 -21 -96 -53 -116 -72 -44 -41 -126
-163 -164 -243 -15 -33 -30 -63 -32 -67 -6 -12 4 -9 19 5 104 99 228 190 313
231 64 30 104 38 205 41 103 3 207 -12 329 -47 l44 -13 -90 -175 c-266 -521
-598 -943 -918 -1165 -160 -112 -210 -169 -222 -250 -16 -122 68 -222 193
-226 85 -3 136 29 259 165 9 9 91 108 120 143 6 7 15 18 21 25 78 96 364 520
364 541 0 2 32 59 71 128 39 68 139 260 221 427 114 230 154 302 165 298 8 -4
79 -43 157 -87 483 -276 898 -634 1087 -939 56 -91 190 -354 233 -460 15 -36
33 -78 40 -95 123 -281 191 -417 271 -540 104 -161 267 -342 372 -413 103 -70
116 -72 437 -69 157 2 288 6 292 10 4 3 -13 33 -37 66 -24 32 -51 69 -59 81
-8 12 -51 72 -96 133 -154 215 -296 431 -372 568 -280 506 -506 1042 -666
1581 -50 168 -177 684 -193 783 -2 17 -8 46 -13 65 -15 57 -79 384 -105 535
-8 50 -17 102 -20 118 -3 15 -9 53 -15 85 -5 31 -12 71 -15 87 -9 50 -63 416
-70 470 -3 28 -8 64 -10 80 -2 17 -6 50 -10 75 -3 25 -7 63 -10 85 -3 22 -8
60 -10 85 -3 25 -7 65 -10 90 -3 25 -7 68 -10 95 -14 132 -16 152 -20 185 -2
19 -7 62 -10 95 -11 118 -16 170 -20 200 -2 17 -7 66 -10 110 -4 44 -8 81 -10
83 -1 1 -7 -10 -13 -25z m-266 -1471 c12 -86 24 -170 27 -187 3 -16 11 -66 17
-110 9 -64 40 -253 75 -465 2 -14 11 -68 20 -120 8 -52 17 -106 19 -120 9 -50
26 -146 30 -175 9 -55 45 -259 61 -345 18 -97 16 -83 45 -255 12 -71 23 -132
25 -135 2 -3 6 -29 10 -59 4 -30 11 -65 16 -78 10 -28 0 -29 -32 -4 -41 31
-311 210 -435 287 -59 36 -547 284 -561 284 -4 0 -14 4 -22 9 -14 9 -9 18 170
383 26 54 51 108 55 120 4 13 22 55 40 93 18 39 50 115 72 170 22 55 74 186
116 290 105 262 128 322 177 462 23 68 45 120 48 117 3 -3 16 -76 27 -162z"/>
</g>
</svg>
